<svg xmlns="http://www.w3.org/2000/svg" viewBox="0 0 24 24" width="256" height="256"><circle c x="12" c y="12" r="10" fill="none" stroke="black" stroke-width="0.8" d="M 7.78125 3.984375 L 9.890625 3.984375 C 9.834375381469727 4.34 9999 904632568 9.778124809265137 4.71 5625286102295 9.721875190734863 5.081250190734863 L 9.721875190734863 7.612500190734863 C 9.609375 8.175000190734863 9.328125 8.737500190734863 9.046875 9.131250381469727 L 9.046875 9.131250381469727 C 9.328125 9.496874809265137 9.609375 9.862500190734863 9.890625 10.228124618530273 L 9.890625 15.037500381469727 L 9.890625 19.340625762939453 C 9.328125 19.56 5624237060547 8.934374809265137 19.62 1875762939453 8.540624618530273 19.846874237060547 L 6.346875190734863 19.846874237060547 C 5.96 234 98 916 62598 19.62 1875762939453 5.53 66 81 0417 17 52 9 19.606 967 926 02539 5.081250190734863 19.340625762939453 L 5.081250190734863 13.434374809265137 C 5.303 124 904632568 13.265625 5.474 999904632568 13.096875190734863 5.503125190734863 12.928125381469727 L 5.503125190734863 10.228124618530273 C 5.446875 095367432 9.862500190734863 5.390625 9.328125 5.334375381469727 8.962499618530273 L 5.334375381469727 8.962499618530273 C 5.446875 095367432 8.737500190734863 5.55 9375 286102295 8.512499809265137 5.671875 8.118749618530273 L 5.671875 7.443749904632568 C 5.643750190734863 7.21875 5.784375190734863 6.993750095367432 5.925000190734863 6.600000381469727 L 5.925000190734863 6.600000381469727 C 5.7 5624 9904632568 6.515625 5.70000 0286102295 6.431250095367432 5.587500095367432 6.346875190734863 L 5.587500095367432 6.346875190734863 C 5.587500095367432 6.09375 5.587500095367432 5.840625286102295 5.587500095367432 5.587500095367432 L 5.587500095367432 4.912500381469727 C 5.72 8125095367432 4.71 5625286102295 6.037500381469727 4.518750190734863 6.346875190734863 4.321875095367432 L 7.78125 4.321875095367432 C 8.146875381469727 4.518750190734863 8.512499809265137 4.71 5625286102295 8.878125190734863 4.912500381469727 L 8.878125190734863 8.118749618530273 C 8.765625 8.315625190734863 8.653124809265137 8.512499809265137 8.540624618530273 8.709375381469727 L 7.78125 8.709375381469727 C 7.640625 8.512499809265137 7.5 8.315625190734863 7.359375 8.118749618530273 L 7.359375 7.696875095367432 C 7.5 7.5 7.640625 7.303125381469727 7.78125 7.106250286102295 L 7.78125 7.106250286102295 C 7.640625 6.82500 0286102295 7.5 6.54 3750286102295 7.359375 6.262500286102295 L 7.359375 6.262500286102295 C 7.5 6.09375 7.640625 6.09375 7.78125 5.925000190734863 L 7.78125 5.925000190734863"/> <path fill="none" stroke="black" stroke-width="0.8" stroke-opacity="1.0" d="M 8.203125 7.359375 L 8.203125 7.359375 C 8.399999618530273 7.556250095367432 8.596875190734863 7.753125190734863 8.793749809265137 7.950000286102295 L 8.793749809265137 11.873 437881469727 L 8.793749809265137 16.303125381469727 C 8.596875190734863 16.584375381469727 8.399999618530273 16.865625381469727 8.203125 16.978124618530273 L 7.950000286102295 16.978124618530273 C 7.921875 16.865625381469727 7.89 3750190734863 16.584375381469727 7.865624904632568 16.303125381469727 L 7.865624904632568 11.873 437881469727 L 7.865624904632568 7.950000286102295 C 7.837500095367432 7.753125190734863 7.80937 4809265137 7.556250095367432 7.78125 7.359375 L 8.203125 7.359375"/> <path fill="none" stroke="black" stroke-width="0.8" stroke-opacity="1.0" d="M 8.540624618530273 7.696875095367432 L 8.540624618530273 7.696875095367432 C 8.737500190734863 7.753125190734863 8.934374809265137 7.80937 4809265137 9.131250381469727 7.865624904632568 L 10.987500190734863 7.696875095367432 C 10.95937 442779541 7.837500095367432 11.015625 7.978124618530273 11.071874618530273 8.118749618530273 L 12.421875 8.118749618530273 C 12.393750190734863 7.809375 286102295 12.534375190734863 7.5 12.506250381469727 7.359375 L 13.096875190734863 7.359375 C 13.32 1874618530273 7.3874 99809265137 13.378125190734863 7.415625095367432 13.603124618530273 7.443749904632568 L 13.603124618530273 7.443749904632568 C 14.75 26 197 433 47168 7.18 12 8728 866 57715 15.47 01 51 90 124 5117 7.043 086 051 940918 16.134374618530273 6.853125095367432 L 16.134374618530273 6.853125095367432 C 16.415624618530273"/></svg>