<svg xmlns="http://www.w3.org/2000/svg" viewBox="0 0 24 24" width="256" height="256"><path fill="none" stroke="black" stroke-width="0.8" d="M 4 4 L 20 4.996875286102295 L 17.821874618530273 9.806249618530273 L 19.509374618530273 15.712499618530273 L 18.243749618530273 20.774999618530273 L 15.459375381469727 15.712499618530273 L 15.459375381469727 9.806249618530273 L 13.771875381469727 6.853125095367432 L 9.384374618530273 6.853125095367432 L 7.443749904632568 9.806249618530273 L 5.925000190734863 13.518750190734863 L 5.925000190734863 10.143750190734863 L 4.828125 4.996875286102295"/> <path fill="none" stroke="black" stroke-width="0.8" stroke-opacity="1.0" d="M 6.515625 4.996875286102295 L 12.548 437118530273 4.996875286102295 L 17.653125762939453 4.996875286102295 L 17.653125762939453 10.565625190734863 L 18.159374237060547 15.712499618530273 L 12.548 437118530273 15.712499618530273 L 6.515625 15.712499618530273 L 6.515625 10.565625190734863 L 6.515625 4.996875286102295"/> <path fill="none" stroke="black" stroke-width="0.8" stroke-opacity="1.0" d="M 6.684375286102295 6.684375286102295 L 12.548 437118530273 6.684375286102295 L 17.653125762939453 6.684375286102295 L 17.653125762939453 10.228124618530273 L 12.548 437118530273 10.228124618530273 L 6.684375286102295 10.228124618530273 L 6.684375286102295 6.684375286102295"/> <path fill="none" stroke="black" stroke-width="0.8" stroke-opacity="1.0" d="M 8.540624618530273 6.684375286102295 L 12.548 437118530273 6.684375286102295 L 16.978124618530273 6.684375286102295 L 16.978124618530273 10.396875381469727 L 12.548 437118530273 10.396875381469727 L 8.540624618530273 10.396875381469727 L 8.540624618530273 6.684375286102295"/> <path fill="none" stroke="black" stroke-width="0.8" stroke-opacity="1.0" d="M 9.975000381469727 6.684375286102295 L 12.548 437118530273 6.684375286102295 L 16.978124618530273 6.684375286102295 L 16.978124618530273 10.565625190734863 L 12.548 437118530273 10.565625190734863 L 8.540624618530273 10.565625190734863 L 8.540624618530273 6.684375286102295"/> <path fill="none" stroke="black" stroke-width="0.8" stroke-opacity="1.0" d="M 16.978124618530273 7.275000095367432 L 16.978124618530273 10.565625190734863 L 12.548 437118530273 10.565625190734863 L 8.540624618530273 10.565625190734863 L 8.540624618530273 7.275000095367432 L 12.548 437118530273 7.275000095367432 L 16.978124618530273 7.275000095367432"/> <path fill="none" stroke="black" stroke-width="0.8" stroke-opacity="1.0" d="M 8.540624618530273 7.950000286102295 L 12.548 437118530273 7.950000286102295 L 16.978124618530273 7.950000286102295 L 16.978124618530273 10.565625190734863 L 12.548 437118530273 10.565625190734863 L 8.540624618530273 10.565625190734863 L 8.540624618530273 7.950000286102295"/> <path fill="none" stroke="black" stroke-width="0.8" stroke-opacity="1.0" d="M 13.265625 8.371874809265137 L 15.037500381469727 8.371874809265137 L 15.037500381469727 10.059374809265137 L 13.265625 10.059374809265137 L 13.265625 8.371874809265137"/> <path fill="none" stroke="black" stroke-width="0.8" stroke-opacity="1.0" d="M 16.978124618530273 9.300000190734863 L 16.978124618530273 11.240625381469727 L 14.615625381469727 11.240625381469727 L 14.615625381469727 13.265625 L 13.265625 13.265625 L 13.265625 12.337499618530273 L 15.037500381469727 12.337499618530273 L 15.037500381469727 14.193750381469727 L 16.978124618530273 14.193750381469727 L 16.978124618530273 14.699999809265137 L 16.978124618530273 15.628125190734863 L 16.978124618530273 15.628125190734863 L 14.615625381469727 15.628125190734863 L 14.615625381469727 15.459375381469727 L 13.771875381469727 14.362500190734863 L 13.771875381469727 14.193750381469727 L 13.771875381469727 12.337499618530273 L 14.615625381469727 12.337499618530273 L 14.615625381469727 10.059374809265137 L 15.037500381469727 10.059374809265137 L 15.037500381469727 12.337499618530273 L 16.978124618530273 12.337499618530273 L 16.978124618530273 13.265625 L 14.615625381469727 13.265625 L 14.615625381469727 14.193750381469727 L 13.771875381469727 14.193750381469727 L 13.771875381469727 15.628125190734863 L 13.771875381469727 15.628125190734863 L 14.615625381469727 15 ."/></svg>