<svg xmlns="http://www.w3.org/2000/svg" viewBox="0 0 24 24" width="256" height="256"><g><rect x="3" y="3" width="8" height="8" fill="none" stroke="black" stroke-width="0.8" d="M 6.600000381469727 3.3937501907348633 L 12.6 46875381469727 3.3937501907348633 L 20.774999618530273 3.3937501907348633 C 20.90 57 46 45996 0938 4.13 99 45 98 38867 19 21.16 18 537 902 83203 4.71 15 48 805 23 6816 20.774999618530273 5.334375381469727 L 14.953125 5.334375381469727 L 10.143750190734863 5.334375381469727 C 9.99 18 68 97277832 4.71 15 48 805 23 6816 9.7 59 1543 197 63184 4.13 99 45 98 38867 19 9.721875190734863 3.3937501907348633 L 15.037500381469727 3.3937501907348633"/> <path fill="none" stroke="black" stroke-width="0.8" stroke-opacity="1.0" d="M 5.081250190734863 3.7312498092651367 L 12.0 3.7312498092651367 L 19.424999237060547 3.7312498092651367 C 20.05 63 83 13 293 457 4.15 90 6333 923 3398 20.6 076 946 258 95508 4.93 06 15 90 19 47 0215 20.774999618530273 6.262500286102295 L 20.774999618530273 12.21 09375 L 20.774999618530273 17.990625381469727 C 20.521875381469727 18.271875381469727 20.18 63 288 87939453 18.553125381469727 19.846874237060547 18.834375381469727 L 12.0 18.834375381469727 L 5.081250190734863 18.834375381469727 C 4.828125 17.990625381469727 4.575000286102295 17.484375 4.153125286102295 17.146875381469727 L 4.153125286102295 12.21 09375 L 4.153125286102295 6.262500286102295 C 4.575000286102295 5.925000190734863 4.828125 5.587500095367432 5.081250190734863 5.25 L 5.081250190734863 3.7312498092651367"/> <path fill="none" stroke="black" stroke-width="0.8" stroke-opacity="1.0" d="M 5.081250190734863 3.984375 L 12.84375 3.984375 C 13.378125190734863 4.350000381469727 13.828125 4.71 5625286102295 14.278124809265137 5.081250190734863 L 14.193750381469727 7.950000286102295 C 13.828125 8.315625190734863 13.46 250057220459 8.681249618530273 13.096875190734863 8.878125190734863 L 6.262500286102295 8.878125190734863 C 5.953125 476837158 8.681249618530273 5.643750190734863 8.315625190734863 5.503125190734863 7.950000286102295 L 5.503125190734863 3.984375"/> <path fill="none" stroke="black" stroke-width="0.8" stroke-opacity="1.0" d="M 16.134374618530273 6.178125381469727 L 16.134374618530273 6.178125381469727 C 16.528125 762939453 6.431250095367432 17.146875381469727 6.684375286102295 17.653125762939453 6.9375 L 17.653125762939453 12.21 09375 L 17.653125762939453 17.146875381469727 C 17.146875381469727 17.484375 16.47187 614440918 17.990625381469727 15.796875 18.328125 L 10.734375 18.328125 C 10.340624809265137 17.990625381469727 9.778124809265137 17.484375 9.384374618530273 17.146875381469727 L 9.384374618530273 12.21 09375 L 9.384374618530273 7.950000286102295 C 9.778124809265137 7.471875190734863 10.340624809265137 6.9375 10.734375 6.178125381469727 L 12.590624809265137 6.178125381469727 L 12.590624809265137 5.081250190734863 C 12.871874809265137 4.71 5625286102295 13.153124809265137 4.350000381469727 13.434374809265137 3.984375 L 15.037500381469727 3.984375 C 15.234375 4.350000381469727 15.43125 057220459 4.71 5625286102295 15.628125190734863 4.912500381469727 L 15.628125190734863 10.396875381469727 L 15.628125190734863 17.146875381469727 C 15.43125 057220459 17.990625381469727 15.234375 18.328125 15.037500381469727 18.665624618530273 L 10.734375 18.665624618530273 L 4.153125286102295 18.665624618530273 C 3.956250190734863 3 18.328125 3.92 8125 143 051 1475 18.159374237060547 3.8156251907348633 17.146875381469727 L 3.8156251907348633 10.396875381469727 L 3.8156251907348633 4.912500381469727 C 3.92 8125 143 051 1475 4.71 5625286102295 4.04 0625 095367432 4.350000381469727 4.153125286102295 4.153125286102295 L 10.734375 4.153125286102295 L 16.134374618530273 4.153125286102295 C 16.415624618530273 4.350000381469727 16.528125 762939453 4.546875 476837158 16.809375762939453 4.743750095367432 L 16.809375762939453 6.178125381469727"/> <path fill="none" stroke="black" stroke-width="0.8" stroke-opacity="1.0" d="M 12.84375 6.684375286102295 L 12.84375 6.684375286102295 C 13.293749809265137 7.078125 13.74 3749618530273 7.471875190734863 14.193750381469727 7.865624904632568 L 16"/></svg>