<svg xmlns="http://www.w3.org/2000/svg" viewBox="0 0 24 24" width="256" height="256"><path fill="none" stroke="black" stroke-width="0.8" d="M 12 2 L 12.168749809265137 L 11.915624618530273 12.168749809265137 L 11.915624618530273 11.071874618530273 L 14.109375 11.071874618530273 L 14.109375 14.193750381469727 L 12.590624809265137 14.193750381469727 C 12.421875 13.96875 12.421875 13.574999809265137 12.421875 13.181249618530273 L 12.421875 12.168749809265137 C 12.421875 11.971875190734863 12.421875 11.774999618530273 12.421875 11.746874809265137 L 12.421875 11.746874809265137 C 12.421875 11.690625190734863 12.421875 11.634374618530273 12.421875 11.578125 L 12.421875 11.409375190734863 C 12.421875 11.212499618530273 12.421875 11.015625 12.421875 10.818750381469727 L 12.421875 10.481249809265137"/> <path fill="none" stroke="black" stroke-width="0.8" stroke-opacity="1.0" d="M 15.206250190734863 11.409375190734863 L 15.206250190734863 11.409375190734863 C 15.43125 057220459 11.690625190734863 15.65625 11.971875190734863 15.881250381469727 12.084375381469727 L 15.881250381469727 12.084375381469727 C 15.740625381469727 12.309374809265137 15.600000381469727 12.534375190734863 15.628125190734863 12.759374618530273 L 15.628125190734863 14.193750381469727 L 15.628125190734863 15.121874809265137 C 15.54 51 0498 046875 15.33 51 43 08 92 94434 15.38 48 876 953125 15.4 474 05 81 5124 512 15.121874809265137 15.459375381469727 L 15.121874809265137 16.640625 C 15.375 16.809375762939453 15.459375381469727 17.146875381469727 15.543749809265137 17.315624237060547 L 15.206250190734863 15.459375381469727 C 15.262499809265137 15.459375381469727 15.3 1874942779541 15.459375381469727 15.206250190734863 15.459375381469727 L 15.206250190734863 15.459375381469727 L 14.362500190734863 15.459375381469727"/></svg>