<svg xmlns="http://www.w3.org/2000/svg" viewBox="0 0 24 24" width="256" height="256"><path fill="none" stroke="black" stroke-width="0.8" stroke-opacity="1.0" d="M 12.168749809265137 3.47812557220459 L 12.168749809265137 3.47812557220459 C 13.7 02 18 276 977539 3.76 13 53 49 273 68164 14.81 97 832 10 75 4395 4.7 11 73 286 437 9883 15.543749809265137 6.346875190734863 L 15.543749809265137 6.346875190734863 C 16.3 057 136 53 564453 6.3 11 01 99 92 82 836 9 17.17 48 42 83 447 2656 6.48 43 03 47 44 26 2695 17.568750381469727 6.684375286102295 L 17.568750381469727 6.684375286102295 C 17.51 2500 762939453 6.65625 17.287500381469727 6.628125190734863 17.231250762939453 6.600000381469727 L 17.231250762939453 6.600000381469727 C 17.17 4999237060547 6.600000381469727 17.118749618530273 6.600000381469727 17.0625 6.600000381469727 L 17.0625 6.600000381469727 C 15.6 133 07 952 88086 7.7 02 18 038 558 96 14.7 41 47 51 0528 5645 9.01 92 27 027 893 066 13.771875381469727 10.3125 L 13.771875381469727 10.3125 C 13.6 0312557220459 10.199999809265137 13.434374809265137 10.0 87500 57220459 13.265625 9.975000381469727 L 13.265625 9.975000381469727 C 12.956250190734863 9.918749809265137 12.815625190734863 9.862500190734863 12.675000190734863 9.806249618530273 L 12.675000190734863 9.806249618530273 C 12.815625190734863 9.806249618530273 12.956250190734863 9.806249618530273 13.096875190734863 9.806249618530273 L 13.096875190734863 9.806249618530273 C 14.25 9.806249618530273 14.72 812557220459 9.806249618530273 15.037500381469727 9.806249618530273 L 15.037500381469727 9.806249618530273 C 15.065625190734863 9.862500190734863 15.09375 9.918749809265137 15.121874809265137 9.975000381469727 L 15.121874809265137 9.975000381469727 C 15.09375 9.918749809265137 15.065625190734863 9.862500190734863 15.037500381469727 9.806249618530273 L 15.037500381469727 9.806249618530273 C 14.8125 9.862500190734863 14.418749809265137 9.918749809265137 14.024999618530273 9.975000381469727 L 13.096875190734863 9.975000381469727 C 12.956250190734863 9.862500190734863 12.815625190734863 9.75 12.675000190734863 9.637499809265137 L 12.675000190734863 9.637499809265137 C 12.871874809265137 9.665624618530273 12.899999618530273 9.693750381469727 13.096875190734863 9.721875190734863 L 13.096875190734863 9.721875190734863 C 13.209375381469727 9.75 13.32 1874618530273 9.778124809265137 13.434374809265137 9.806249618530273 L 13.434374809265137 9.806249618530273 C 13.378125190734863 9.918749809265137 13.32 1874618530273 9.862500190734863 13.265625 9.806249618530273 L 13.265625 9.806249618530273 C 13.32 1874618530273 9.862500190734863 13.378125190734863 9.918749809265137 13.434374809265137 9.975000381469727 L 13.434374809265137 9.975000381469727 C 13.574999809265137 9.862500190734863 13.715624809265137 9.75 13.856249809265137 9.637499809265137 L 13.856249809265137 9.637499809265137 C 13.912500381469727 9.581250190734863 13.96875 9.356249809265137 14.024999618530273 9.131250381469727 L 14.024999618530273 9.131250381469727 C 14.137499809265137 9.074999809265137 14.25 9.018750190734863 14.362500190734863 8.962499618530273 L 14.362500190734863 8.962499618530273 C 14.418749809265137 8.934374809265137 14.475000381469727 8.90625 14.53125 8.878125190734863 L 14.53125 8.878125190734863 C 14.643750190734863 8.934374809265137 14.925000190734863 8.990625381469727 15.037500381469727 9.046875 L 15.037500381469727 9.046875 C 15.121874809265137 9.1875 15.206250190734863 9.328125 15.290624618530273 9.46875 L 15.290624618530273 9.46875 C 15.206250190734863 9.581250190734863 15.121874809265137 9.6 9374 942779541 15.037500381469727 9.806249618530273 L 15.037500381469727 9.806249618530273 C 15.065625190734863 9.806249618530273 15.09375 9.806249618530273 15.121874809265137 9.806249618530273 L 15.121874809265137 9.806249618530273 C 15.121874809265137 9.75 15.121874809265137 9.6 9374 942779541 15.121874809265137 9.637499809265137 L 15.121874809265137 9.637499809265137 C 15.065625190734863 9.637499809265137 15.065625190734863 9.637499809265137 15.121874809265137 9.637499809265137 L 15.121874809265137 9.637499809265137 C 15.065625190734863 9.637499809265137 15.178125381469727 9.637499809265137 15.121874809265137 9.637499809265137 L 15.121874809265137 9.637499809265137 C 15.178125381469727 9.524999618530273 15.065625190734863 9.412500381469727 15 ."/></svg>