<svg xmlns="http://www.w3.org/2000/svg" viewBox="0 0 24 24" width="256" height="256"><path fill="none" stroke="black" stroke-width="0.8" stroke-opacity="1.0" d="M 14.446874618530273 5.503125190734863 L 14.446874618530273 5.503125190734863 C 15.8 036 88 04 93 164 06 5.92 80 90 5723 57 178 17.13 36 193 08 47168 6.76 58 033 37 097168 17.568750381469727 7.865624904632568 L 17.90625 7.443749904632568 C 18.243749618530273 8.146875381469727 18.412500381469727 9.018750190734863 18.412500381469727 9.384374618530273 L 18.412500381469727 9.384374618530273 C 18.412500381469727 9.834375381469727 18.412500381469727 10.453125 18.412500381469727 11.409375190734863 L 18.412500381469727 11.409375190734863 C 17.90625 11.746874809265137 17.399999618530273 12.084375381469727 16.893749237060547 12.590624809265137 L 16.556249618530273 12.590624809265137 C 16.303125381469727 12.084375381469727 16.049999237060547 11.746874809265137 15.796875 11.409375190734863 L 15.796875 11.409375190734863 C 15.796875 11.746874809265137 15.796875 12.084375381469727 15.796875 12.590624809265137 L 15.121874809265137 12.590624809265137 C 14.840624809265137 12.871874809265137 14.559374809265137 13.153124809265137 14.446874618530273 13.603124618530273 L 14.446874618530273 13.603124618530273 C 14.446874618530273 13.940625190734863 14.446874618530273 14.278124809265137 14.446874618530273 14.446874618530273 L 14.446874618530273 14.446874618530273 C 14.446874618530273 14.418749809265137 14.446874618530273 14.221875190734863 14.446874618530273 14.024999618530273 L 14.446874618530273 14.024999618530273 C 12.53 47 6333 6 18164 13.86 4 461 0900 8789 11.7 053 24 172 973633 13.4 125 06 103 515625 11.831250190734863 11.409375190734863 L 11.831250190734863 10.903124809265137 C 11.887499809265137 10.368749618530273 11.943750381469727 9.834375381469727 12.0 9.131250381469727 L 12.421875 9.131250381469727 C 12.449999809265137 8.934374809265137 12.47812557220459 8.737500190734863 12.506250381469727 8.540624618530273 L 12.506250381469727 8.371874809265137 C 12.956250190734863 8.737500190734863 13.40625 8.934374809265137 13.856249809265137 9.300000190734863 L 13.856249809265137 9.384374618530273 C 14.193750381469727 9.75 14.362500190734863 9.946874618530273 14.699999809265137 10.3125 L 14.699999809265137 10.3125 C 14.868749618530273 10.565625190734863 15.037500381469727 10.8 1874942779541 15.206250190734863 11.071874618530273 L 15.206250190734863 11.071874618530273 C 15.290624618530273 11.15625 15.375 11.240625381469727 15.459375381469727 11.324999809265137 L 15.459375381469727 11.324999809265137 C 14.7 086 143 493 65234 11.7 02 63 86 26 098633 14.03 33 538 05 54199 2 12.3 477 83 08 86 84082 13.350000381469727 12.84375 L 13.350000381469727 12.84375 C 13.32 1874618530273 13.096875190734863 13.631250381469727 13.350000381469727 13.603124618530273 13.603124618530273 L 13.603124618530273 13.603124618530273 C 13.800000190734863 13.574999809265137 13.996874809265137 13.715624809265137 14.024999618530273 13.856249809265137 L 14.024999618530273 13.856249809265137 C 14.3 0625057220459 13.574999809265137 14.418749809265137 13.293749809265137 14.53125 12.84375 L 14.53125 12.84375 L 14.53125 12.675000190734863 C 14.503125190734863 13.012499809265137 14.643750190734863 13.181249618530273 14.784375190734863 13.350000381469727 L 14.784375190734863 13.856249809265137"/> <path fill="none" stroke="black" stroke-width="0.8" stroke-opacity="1.0" d="M 14.193750381469727 13.940625190734863 L 14.193750381469727 13.940625190734863 C 14.221875190734863 14.081250190734863 14.25 14.390625 14.278124809265137 14.53125 L 14.53125 15.206250190734863 C 14.53125 15.487500190734863 14.53125 15.768750190734863 14.53125 16.049999237060547 L 14.278124809265137 16.049999237060547 C 14.081250190734863 15.768750190734863 13.715624809265137 15.487500190734863 13.350000381469727 15.206250190734863 L 13.350000381469727 15.206250190734863 C 13.096875190734863 15.178125381469727 12.84375 15.149999618530273 12.759374618530273 15.121874809265137 L 12.084375381469727 15.121874809265137 C 10.7 136 05 88 07 37305 15.037500381469727 10.43 1 186 67 60 2539 14.96 07 105 25 512695 10.143750190734863 14.109375 C 9.64 13 43 116 76 0254 13.7 42 24 47 204 58 984 9.300000190734863 13 ."/></svg>