<svg xmlns="http://www.w3.org/2000/svg" viewBox="0 0 24 24" width="256" height="256"><path fill="none" stroke="black" stroke-width="0.8" stroke-opacity="1.0" d="M 10.987500190734863 7.359375 L 10.987500190734863 7.359375 C 12.725 933 0749 51172 7.67 37 09 86 938 4766 14.92 074 966430664 8.43 12 992 09 594727 16.63 32 01 599 121094 9.2578125 C 17.26 84 173 58398 438 10.78 84 14 95 51 3916 17.76 26 628 87573242 12.73 43 54 97 283 9355 17.494 48 585 51 0254 14.68 59 46 46 453 8 574 C 17.216 92 466 73 584 16.663 26 5 228 271484 16.23 21 186 0656 7383 18.27 07 157 13 500 977 15.459375381469727 19.846874237060547 C 14.77 555 37 03 30 8105 20.72 466 278 076172 13.43 1 005 477 905273 21.6 936 87 438 964844 11.23 26 64 10 827 6367 21.51 01 547 24121094 C 9.85 005 187 98 82812 21.43 122 86 376953 12 8.148 6 062 85 095215 20.73 81 153 106 68945 7.359375 19.846874237060547 C 6.2 017 13 562 0117 19 18.786 981 58 26416 6.17 11 43 05 496 2 158 17.15 86 818 6 9506836 6.3 486 97 18 551 63 57 15.53 002 26 21 15 4785 C 6.401 51 023 86 47461 14.47 06 51 625 633 545 6.95 44 59 190 36 8652 13.42 87 06 16 912 8418 7.528125286102295 12.168749809265137 L 7.528125286102295 12.168749809265137"/> <path fill="none" stroke="black" stroke-width="0.8" stroke-opacity="1.0" d="M 15.290624618530273 10.903124809265137 L 15.290624618530273 10.903124809265137 C 15.37 35 9046 93 603 52 11.05 80 244 06 43 3105 15.3 200 016 02 172 852 11.42 26 77 99 3774414 15.290624618530273 11.831250190734863 L 15.290624618530273 11.831250190734863 C 15.00 9374618530273 12.028124809265137 14.896875381469727 12.225000381469727 14.784375190734863 12.421875 L 14.784375190734863 12.421875 C 14.925000190734863 12.449999809265137 15.065625190734863 12.47812557220459 15.290624618530273 12.506250381469727 L 15.290624618530273 12.506250381469727 C 15.9375 12.47812557220459 16.415624618530273 12.449999809265137 16.893749237060547 12.421875 L 16.893749237060547 12.421875 C 17.006250381469727 12.449999809265137 17.118749618530273 12.47812557220459 17.231250762939453 12.506250381469727 L 17.231250762939453 12.506250381469727 C 17.484375 12.449999809265137 17.7 937 4885559082 12.393750190734863 18.159374237060547 12.337499618530273 L 18.159374237060547 12.337499618530273 C 18.271875381469727 12.112500190734863 18.384374618530273 12.056249618530273 18.496875762939453 12.0 L 18.496875762939453 12.084375381469727 C 18.384374618530273 12.196874618530273 18.271875381469727 12.365625381469727 18.159374237060547 12.590624809265137 L 18.159374237060547 12.590624809265137 C 18.046875 12.703125 17.93 437 385559082 12.815625190734863 17.821874618530273 13.096875190734863 L 17.821874618530273 13.096875190734863 C 17.7 937 4885559082 13.18 125057220459 17.765625 13.265625 17.737499237060547 13.350000381469727 L 17.231250762939453 13.350000381469727 C 17.231250762939453 13.631250381469727 17.231250762939453 13.74 3749618530273 17.231250762939453 13.856249809265137 L 17.231250762939453 13.856249809265137 C 17.231250762939453 13.8 8437557220459 17.231250762939453 13.912500381469727 17.231250762939453 13.940625190734863 L 17.231250762939453 13.856249809265137 C 17.231250762939453 13.74 3749618530273 17.231250762939453 13.631250381469727 17.231250762939453 13.518750190734863 L 17.231250762939453 13.518750190734863 C 17.231250762939453 13.40625 17.231250762939453 13.293749809265137 17.231250762939453 13.181249618530273 L 17.231250762939453 13.181249618530273 C 17.34375 12.871874809265137 17.456250190734863 12.731249809265137 17.568750381469727 12.421875 L 17.568750381469727 12.421875 C 17.456250190734863 12.393750190734863 17.34375 12.365625381469727 17.231250762939453 12.337499618530273 L 17.231250762939453 12.337499618530273 C 17.231250762939453 12.225000381469727 17.231250762939453 12.225000381469727 17.231250762939453 12.168749809265137 L 17.231250762939453 12.168749809265137 C 17.146875381469727 12.225000381469727 17"/></svg>