<svg xmlns="http://www.w3.org/2000/svg" viewBox="0 0 24 24" width="256" height="256"><path fill="none" stroke="black" stroke-width="0.8" stroke-opacity="1.0" d="M 9.806249618530273 6.009375095367432 L 14.109375 6.009375095367432 C 14.503125190734863 6.431250095367432 14.8 9687442779541 6.684375286102295 15.121874809265137 7.106250286102295 L 15.628125190734863 13.603124618530273 L 15.121874809265137 19.340625762939453 L 11.915624618530273 19.340625762939453 L 9.806249618530273 15.628125190734863 L 9.806249618530273 13.603124618530273 L 12.0 13.603124618530273 L 12.0 9.975000381469727 L 9.806249618530273 6.009375095367432"/> <path fill="none" stroke="black" stroke-width="0.8" stroke-opacity="1.0" d="M 14.109375 8.540624618530273 L 19.256250381469727 8.540624618530273 C 19.537500381469727 8.821874618530273 19.818750381469727 9.103124618530273 20.268749237060547 9.384374618530273 L 20.268749237060547 13.603124618530273 L 20.268749237060547 17.399999618530273 C 19.818750381469727 17.709375381469727 19.537500381469727 17.850000381469727 19.256250381469727 18.159374237060547 L 14.109375 18.159374237060547 L 9.806249618530273 18.159374237060547 L 9.806249618530273 13.603124618530273 L 11.493749618530273 16.134374618530273 C 11.465624809265137 15.909375190734863 11.4375 15.684374809265137 11.240625381469727 15.459375381469727 L 11.240625381469727 9.384374618530273 C 11.550000190734863 9.103124618530273 11.859375 8.821874618530273 12.168749809265137 8.540624618530273 L 14.109375 8.540624618530273"/> <path fill="none" stroke="black" stroke-width="0.8" stroke-opacity="1.0" d="M 13.856249809265137 9.46875 L 13.856249809265137 9.46875 C 14.981249809265137 9.581250190734863 15.59999942779541 9.6 9374 942779541 16.21875 9.806249618530273 L 16.21875 10.734375 C 15.515625 10.931249618530273 14.981249809265137 11.128125190734863 14.109375 11.324999809265137 L 13.856249809265137 13.856249809265137 L 13.856249809265137 10.734375 L 9.806249618530273 10.734375 L 9.806249618530273 11.324999809265137 C 9.75 11.971875190734863 9.6 9374 942779541 12.449999809265137 9.46875 12.928125381469727 L 9.46875 12.928125381469727 C 9.328125 13.153124809265137 9.1875 13.546875 9.046875 13.771875381469727 L 9.046875 15.459375381469727 C 9.13 124942779541 15.7406 2442779541 9.496874809265137 16.190624237060547 9.806249618530273 16.640625 L 12.084375381469727 18.243749618530273 L 10.228124618530273 17.737499237060547 L 13.856249809265137 14.193750381469727 L 13.856249809265137 9.806249618530273"/></svg>