<svg xmlns="http://www.w3.org/2000/svg" viewBox="0 0 24 24" width="256" height="256"><path fill="none" stroke="black" stroke-width="0.8" stroke-opacity="1.0" d="M 10.059374809265137 6.09375 L 10.059374809265137 6.09375 C 11.42 46 215 438 84277 7.577 81 41 97 54 02 83 12.96 603 584 28 95508 8.82 83 66 27 96 0205 13.63 2656 097 4 1211 10.716 936 11 14501 95 C 13.643 199 92 0654 297 12.33 073 99 74975586 13.62 24 126 81 57 959 14.53 46 651 077 2705 13.434374809265137 16.809375762939453 L 13.434374809265137 16.809375762939453 C 13.318 53 866 57 71 484 16.67 61 9705 200 1953 12.52 16 80 83 190 918 16.67 42 17 987060547 12.168749809265137 16.725000381469727 L 12.168749809265137 16.725000381469727 C 12.107 9998 01635742 17.151 1 955 26 123047 11.8 486 47 117 61 4746 18.203 8383 4838 8672 11.662500381469727 18.496875762939453 L 11.662500381469727 18.496875762939453 C 11.15625 18.075000762939453 10.987500190734863 17.821874618530273 10.818750381469727 17.568750381469727 L 10.903124809265137 16.134374618530273 C 11.831250190734863 15.965624809265137 12.518 06 16 37 878418 15.35 184 47 875 97656 13.181249618530273 15.121874809265137 C 13.725 17 013 5498047 14.9597 415 924 07227 13.912500381469727 14.671875 14.193750381469727 14.278124809265137 L 14.193750381469727 14.278124809265137 C 14.953125 14.137499809265137 15.375 13.996874809265137 15.796875 13.856249809265137 L 15.796875 13.856249809265137 C 16.134374618530273 14.109375 16.471874237060547 14.362500190734863 16.809375762939453 14.615625381469727 L 17.0625 14.615625381469727 C 16.921875 14.925000190734863 16.78125 15.234375 16.640625 15.543749809265137 L 16.640625 15.543749809265137 C 16.809375762939453 15.543749809265137 17.146875381469727 15.543749809265137 17.315624237060547 15.543749809265137 L 17.315624237060547 15.543749809265137 C 18.48 83 57543 9453 12 15.73 23 14 109 80 2246 18.513 484 95 48 33984 16.388 56 50 63 476562 17.315624237060547 16.640625 L 17.315624237060547 16.640625 C 16.753 124237060547 16.865625381469727 16.190624237060547 17.0906 2385559082 15.628125190734863 17.315624237060547 L 15.375 17.315624237060547 C 15.0 3749942779541 17.287500381469727 14.868749618530273 17.259374618530273 14.53125 17.231250762939453 L 14.53125 17.231250762939453 C 14.390625 17.259374618530273 14.25 17.287500381469727 14.109375 17.315624237060547 L 13.940625190734863 17.315624237060547 C 13.659375190734863 17.146875381469727 13.378125190734863 17.146875381469727 12.928125381469727 17.146875381469727 L 12.590624809265137 17.315624237060547 C 11.855 98 37 34 13086 17.44 06 375 88500977 10.36 98 32 99 255 3711 17.44 44 198 6083 9844 9.046875 17.231250762939453 L 8.540624618530273 17.146875381469727 C 8.3 5781 19 2779541 17.315624237060547 8.028 90 586 8530273 17.36 12 27 0355 2246 8.1503 90625 17.653125762939453 C 8.1937 9997253418 17.95 24 28 81 774 9023 8.315625190734863 18.328125 8.456250190734863 18.496875762939453 L 8.456250190734863 18.496875762939453 C 8.37 1875762939453 18.328125 8.34375 18.159374237060547 8.371874809265137 17.990625381469727 L 8.371874809265137 17.821874618530273 C 8.625 17.653125762939453 8.878125190734863 17.315624237060547 8.962499618530273 17.146875381469727 L 8.878125190734863 17.146875381469727 C 8.231249809265137 17.0625 7.921875 17.146875381469727 7.612500190734863 17.0625 L 7.190625190734863 17.0625 C 7.1 484375 17.146875381469727 7.21 17 190 36 102295 17.399999618530273 7.190625190734863 17.315624237060547 L 7.190625190734863 17.484375 C 7.04 22 201 1 566 1621 17.7 44 500 16 02 17285 7.05 74 932 09 838 867 17.9348 14 453125 7.190625190734863 17.990625381469727 L 7.190625190734863 17.315624237060547 C 7.143 93 52 98 9196 78 17.1 477 48 947 143555 7.206 80 37 03 30 81055 17.67 48 9624 023 4375 7.190625190734863 17.990625381469727 L 7.190625190734863 17.990625381469727 C 6.853125095367432 17 ."/></svg>