<svg xmlns="http://www.w3.org/2000/svg" viewBox="0 0 24 24" width="256" height="256"><path fill="none" stroke="black" stroke-width="0.8" stroke-opacity="1.0" d="M 10.565625190734863 4.575000286102295 L 10.565625190734863 4.575000286102295 C 11.8 577 02 255 249023 4.94 54 46 968 07 8613 12.7 41 95 86 18164 062 5.55 94 13 9099 121 09 13.6875 6.262500286102295 L 13.6875 6.262500286102295 C 15.35 03 818 51 196289 6.66 23 048 78 234863 16.77 63 824 4628 9062 7.15 96 77 505 493164 17.484375 9.131250381469727 L 17.484375 9.131250381469727 C 17.118749618530273 9.412500381469727 16.753 124237060547 9.693750381469727 16.387500762939453 9.975000381469727 L 16.387500762939453 9.975000381469727 C 16.443750381469727 10.340624809265137 16.5 10.706250190734863 16.556249618530273 11.071874618530273 L 16.556249618530273 11.071874618530273 C 16.5 11.15625 16.443750381469727 11.2406 2442779541 16.387500762939453 11.324999809265137 L 16.387500762939453 11.324999809265137 C 16.387500762939453 11.071874618530273 16.387500762939453 10.987500190734863 16.387500762939453 10.903124809265137 L 16.387500762939453 10.903124809265137 C 16.443750381469727 10.706250190734863 16.5 10.509374618530273 16.556249618530273 10.3125 L 16.387500762939453 10.3125 C 16.387500762939453 10.199999809265137 16.387500762939453 10.0 87500 57220459 16.387500762939453 9.975000381469727 L 16.387500762939453 9.975000381469727 C 16.387500762939453 9.918749809265137 16.387500762939453 9.862500190734863 16.387500762939453 9.806249618530273 L 16.387500762939453 9.806249618530273 C 16.387500762939453 9.721875190734863 16.387500762939453 9.637499809265137 16.387500762939453 9.553125381469727 L 16.387500762939453 9.553125381469727 C 16.387500762939453 9.637499809265137 16.387500762939453 9.721875190734863 16.387500762939453 9.806249618530273 L 16.387500762939453 9.806249618530273 C 16.443750381469727 9.637499809265137 16.5 9.46875 16.556249618530273 9.300000190734863 L 16.556249618530273 9.300000190734863 C 16.640625 9.1875 16.725000381469727 9.074999809265137 16.809375762939453 8.962499618530273 L 16.809375762939453 8.962499618530273 C 16.8 937 5114440918 8.737500190734863 16.978124618530273 8.512499809265137 17.0625 8.118749618530273 L 17.0625 8.118749618530273 C 16.978124618530273 8.512499809265137 16.8 937 5114440918 8.737500190734863 16.809375762939453 8.962499618530273 L 16.809375762939453 8.962499618530273 C 16.978124618530273 8.737500190734863 17.146875381469727 8.34375 17.315624237060547 8.118749618530273 L 17.315624237060547 8.118749618530273 C 17.399999618530273 7.921875 17.484375 7.89 3750190734863 17.568750381469727 7.696875095367432 L 17.568750381469727 7.696875095367432 C 17.484375 7.809375 286102295 17.399999618530273 7.921875 17.315624237060547 8.034375190734863 L 17.315624237060547 8.034375190734863 C 17.399999618530273 8.315625190734863 17.484375 8.596875190734863 17.568750381469727 8.878125190734863 L 17.568750381469727 8.878125190734863 C 17.568750381469727 8.596875190734863 17.568750381469727 8.315625190734863 17.568750381469727 8.034375190734863 L 17.568750381469727 8.034375190734863 C 17.484375 7.809375 286102295 17.399999618530273 7.584 374904632568 17.315624237060547 7.359375 L 17.315624237060547 7.359375 C 17.315624237060547 7.359375 17.315624237060547 7.359375 17.315624237060547 7.359375 L 17.315624237060547 7.359375 C 17.399999618530273 7.359375 17.484375 7.359375 17.568750381469727 7.359375 L 17.568750381469727 7.359375 C 17.653125762939453 7.359375 17.737499237060547 7.359375 17.821874618530273 7.359375 L 17.821874618530273 7.359375 C 17.737499237060547 7.359375 17.653125762939453 7.359375 17.568750381469727 7.359375 L 17.315624237060547 7.359375 C 17.315624237060547 7.359375 17.315624237060547 7.359375 17.315624237060547 7.359375 L 17.315624237060547 7.359375 C 17.315624237060547 7.359375 17.315624237060547 7.359375 17.315624237060547 7.359375 L 17.315624237060547 7.359375 C 17.315624237060547 7.359375 17.315624237060547 7.359375 17.315624237060547 7.359375 L 17.315624237060547 7.359375 C 17.315624237060547 7.359375 17.315624237060547 7.359375 17.315624237060547 7.359375 L 17.315624237060547 7.359375 C 17.315624237060547 7.359375 17.315624237060547 7.359375 17.315624237060547"/></svg>