<svg xmlns="http://www.w3.org/2000/svg" viewBox="0 0 24 24" width="256" height="256"><path fill="none" stroke="black" stroke-width="0.8" stroke-opacity="1.0" d="M 8.287500381469727 7.359375 L 8.287500381469727 7.359375 C 8.456250190734863 7.528125286102295 8.625 7.696875095367432 8.793749809265137 7.865624904632568 L 8.793749809265137 10.903124809265137 C 8.625 11.071874618530273 8.456250190734863 11.240625381469727 8.287500381469727 11.409375190734863 L 8.287500381469727 12.421875 L 7.359375 12.421875 L 7.359375 13.603124618530273 L 7.865624904632568 13.603124618530273 L 7.865624904632568 13.350000381469727 C 7.865624904632568 13.153124809265137 7.865624904632568 13.125 7.865624904632568 12.928125381469727 L 7.865624904632568 11.409375190734863 C 7.865624904632568 11.240625381469727 7.865624904632568 11.071874618530273 7.865624904632568 10.903124809265137 L 7.865624904632568 10.903124809265137 C 7.78125 10.762499809265137 7.696875095367432 10.453125 7.612500190734863 10.3125 L 7.443749904632568 10.3125 C 7.471875190734863 10.284375190734863 7.5 10.256 24942779541 7.528125286102295 10.059374809265137 L 7.528125286102295 10.059374809265137 C 7.696875095367432 10.087499618530273 7.696875095367432 10.115625381469727 7.696875095367432 10.143750190734863 L 8.287500381469727 10.143750190734863 C 8.231249809265137 10.199999809265137 8.175000190734863 10.256250381469727 8.287500381469727 10.3125 L 8.287500381469727 13.350000381469727 L 7.865624904632568 13.350000381469727 L 7.950000286102295 10.143750190734863 C 7.865624904632568 10.199999809265137 7.78125 10.256250381469727 7.696875095367432 10.3125 L 7.696875095367432 10.3125 C 7.696875095367432 10.368749618530273 7.696875095367432 10.425000190734863 7.696875095367432 10.481249809265137 L 7.696875095367432 10.481249809265137 C 8.118749618530273 10.734375 8.540624618530273 10.987500190734863 8.793749809265137 11.071874618530273 L 8.793749809265137 11.071874618530273 C 8.625 11.100000381469727 8.625 11.128125190734863 8.456250190734863 11.15625 L 8.456250190734863 11.15625 C 8.456250190734863 11.128125190734863 8.456250190734863 11.100000381469727 8.456250190734863 11.071874618530273 L 8.456250190734863 12.421875 C 8.456250190734863 12.393750190734863 8.456250190734863 12.534375190734863 8.456250190734863 12.506250381469727 L 8.456250190734863 12.506250381469727 C 8.456250190734863 12.675000190734863 8.456250190734863 12.84375 8.456250190734863 13.012499809265137 L 8.456250190734863 14.446874618530273 C 8.456250190734863 14.5874 99618530273 8.456250190734863 14.72 8124618530273 8.456250190734863 14.868749618530273 L 8.456250190734863 14.868749618530273 C 8.625 14.981249809265137 8.793749809265137 15.09375 8.793749809265137 15.037500381469727 L 8.456250190734863 15.037500381469727 C 8.34375 15.09375 8.231249809265137 15.150000 57220459 8.118749618530273 15.206250190734863 L 8.118749618530273 15.206250190734863 C 7.96 250057220459 15.09375 7.78125 14.981249809265137 7.612500190734863 14.868749618530273 L 7.612500190734863 14.868749618530273 C 7.696875095367432 14.671875 7.78125 14.643750190734863 7.865624904632568 14.446874618530273 L 7.865624904632568 14.446874618530273 C 7.78125 14.61 562442779541 7.696875095367432 14.671875 7.612500190734863 14.615625381469727 L 7.275000095367432 14.193750381469727 C 7.190625190734863 14.221875190734863 7.106250286102295 14.25 7.021874904632568 14.278124809265137 L 7.021874904632568 13.012499809265137 C 7.23 35 0906 37207 03 13.125 7.190625190734863 13.153124809265137 7.359375 13.181249618530273 L 7.528125286102295 13.265625 C 7.612500190734863 13.32 1874618530273 7.696875095367432 13.378125190734863 7.78125 13.603124618530273 L 7.78125 13.603124618530273 C 7.696875095367432 13.940625190734863 7.612500190734863 14.109375 7.528125286102295 14.278124809265137 L 7.528125286102295 14.278124809265137 C 7.612500190734863 14.390625 7.696875095367432 14.503125190734863 7.78125 14.446874618530273 L 7.78125 14.446874618530273 C 7.359375 14.503125190734863 7.021874904632568 14.559374809265137 6.684375286102295 14.615625381469727 L 6.684375286102295 14.446874618530273 C 6.7406 24904632568 14.418749809265137 6.796875 476837158 14.390625 6.853125095367432 14.362500190734863 L 6.853125095367432 13.603124618530273 C 7.106250286102295 13.378125190734863 7.190625190734863 13.153124809265137 7.443749904632568 13.096875190734863 L 7.443749904632568 13.096875190734863 C 7.6 1875057220459 12.984375"/></svg>