<svg xmlns="http://www.w3.org/2000/svg" viewBox="0 0 24 24" width="256" height="256"><path fill="none" stroke="black" stroke-width="0.8" stroke-opacity="1.0" d="M 12.506250381469727 5.334375381469727 L 12.506250381469727 5.334375381469727 C 14.00 28 97 26 25 73242 6.16 96 27 47 573 8525 15.27 25 973 129 27246 6.6 915 86 49 44 458 01 16.134374618530273 8.371874809265137 L 16.134374618530273 8.371874809265137 C 15.121874809265137 8.878125190734863 14.109375 9.553125381469727 13.603124618530273 10.059374809265137 L 13.603124618530273 10.059374809265137 C 15.2 253 57055664 062 11.03 33 18 5195 92285 15.97 83 267 97 48 5352 12.1 432 07 55 00 48828 17.821874618530273 12.759374618530273 L 16.049999237060547 12.759374618530273 C 15.853 124618530273 12.84375 15.57 1874618530273 12.928125381469727 15.290624618530273 13.012499809265137 L 13.940625190734863 12.84375 L 13.434374809265137 12.759374618530273 C 12.3 477 6306 1523 438 12.41 15 55 290 22 2168 11.76 16 81 5 567 0166 11.83 48 43 63 5559082 11.493749618530273 11.071874618530273 L 11.493749618530273 10.228124618530273 C 12.26 57 92 846 67 9688 8.7 953 586 57 836914 12.53 37 63 88 5498047 7.81 51 483 53 57666 14.193750381469727 7.696875095367432 L 14.193750381469727 7.696875095367432 C 15.32 92 875 28 9917 7.51 97 63 946 5332 03 16.1 273 975 3723 1445 8.18 68 267 0593 2617 16.809375762939453 9.553125381469727 L 16.809375762939453 9.553125381469727 C 15.73 93 13 125 6103 52 10.44 93 98 0407 71 484 15.11 12 36 572 265625 11.37 63 504 02832 031 14.446874618530273 12.84375 L 12.0 12.928125381469727 L 12.0 13.265625 L 10.481249809265137 13.265625 C 9.06 4 9833 488 46 4355 12.63 54 923 248 29102 9.46 12 16 926 574707 10.5 513 84 925 84 2285 10.987500190734863 9.553125381469727 C 11.36 06 777 19 116 211 8.6 937 1318 817 1387 11.95 58 06 73 2177734 8.18 97 02 987 67 0898 12.506250381469727 7.696875095367432 L 12.506250381469727 7.696875095367432 C 12.6 46875381469727 7.5 12.787500381469727 7.303125381469727 12.928125381469727 7.106250286102295 L 12.928125381469727 7.106250286102295 C 14.00 06 47 544 25048 8 6.3 813 86 2800 59 8145 15.7 918 157 577 51 465 6.08 53 9772 0336914 16.471874237060547 6.009375095367432 L 16.471874237060547 6.009375095367432 C 16.584375381469727 6.234375 16.696874618530273 6.290625 095367432 16.809375762939453 6.515625 L 15.459375381469727 13.434374809265137 C 14.7 8437 804 22 05 8105 15.07 96 90 93 32 27539 13.98 64 9597 167 9688 16.3 866 88 23242 1875 12.506250381469727 16.809375762939453 L 9.300000190734863 16.809375762939453 C 93.074999809265137 17.146875381469727 17.681249618530273 17.653125762939453 17.399999618530273 17.990625381469727 L 16.556249618530273 17.990625381469727 C 14.66 16 373 06213379 17.67 64 488 22 021484 13.27 87 13 22 631836 17.3 517 07 45 8496 094 11.746874809265137 17.0625 L 9.300000190734863 17.0625 L 9.300000190734863 16.809375762939453 L 10.3125 16.809375762939453 C 11.09 48 3718 87207 03 16.3 017 063 14 086 914 12.33 17 64 22 11914 06 16.07 41 95 86 18164 06 13.6875 14.953125 L 13.6875 14.953125"/> <path fill="none" stroke="black" stroke-width="0.8" stroke-opacity="1.0" d="M 17.231250762939453 15.459375381469727 L 12.506250381469727 15.459375381469727 L 8.456250190734863 15.459375381469727"/> <path fill="none" stroke="black" stroke-width="0.8" stroke-opacity="1.0" d="M 17.146875381469727 15.459375381469727 L 12.506250381469727 15.459375381469727 L 8.456250190734863 15.459375381469727"/></svg>