<svg xmlns="http://www.w3.org/2000/svg" viewBox="0 0 24 24" width="256" height="256"><path fill="none" stroke="black" stroke-width="0.8" stroke-opacity="1.0" d="M 6.967 20027 923584 8.60 8800 888061523 L 6.967 20027 923584 8.60 8800 888061523 C 7.613 05 284 500 122 1 8.807 00 96 96 96 045 8.54 97 16 94 946 289 8.853 136 06 262207 9.87 2400283813477 8.97 599983215332 L 13.36 0799 789428711 8.97 599983215332 C 13.699 199 67 6513672 9.20 27997 9705 8105 14.13 8399 124 145508 9.32 15999603 27148 14.592 000007629395 9.32 15999603 27148 L 15.65 0400 161743164 9.32 15999603 27148 C 15.7 27999687 194824 9.32 15999603 27148 15.8 8799 9534606934 9.36 4799499 511719 16.0176 01013 183594 9.407 999992370605 L 16.0176 01013 183594 9.407 999992370605 C 15.763 600 34 94 2627 9.32 15999603 27148 15.463 1996 15478516 9.307 199 478149414 15.088 800 430297852 9.1 9200 038 9099121 L 15.088 800 430297852 9.1 9200 038 9099121 C 14.92 96 26 46484375 9.295 44 925 68 96973 14.63 64 097 595 21484 9.3 376 53 1600 95215 14.37 600 04 043 5791 9.407 999992370605 L 14.37 600 04 043 5791 9.407 999992370605 C 14.3 199 996948 24219 9.17 0400619506836 14.09 5199 58496 0938 8.93 28002 9296875 13.94 4000244140625 8.6 951 99966430664 L 13.94 4000244140625 8.6 951 99966430664 C 13.943 201 06 50 63477 8.94 54 28 848 2666 02 13.886 40022277832 9.17 0400619506836 13.94 4000244140625 9.1 9200 038 9099121 L 13.94 4000244140625 9.1 9200 038 9099121 C 13.853 199 9588 0127 9.1 9200 038 9099121 13.65 9600 2578 73535 9.1 9200 038 9099121 13.447 1998 21472168 9.1 9200 038 9099121 L 13.447 1998 21472168 9.1 9200 038 9099121 C 13.61 9999885559082 9.1 5600 0137 32 9102 13.79 2799949645996 9.13 0800 247192383 13.94 4000244140625 9.1 9200 038 9099121 L 13.94 4000244140625 9.1 9200 038 9099121 C 13.7 2800 064086914 9.1 9200 038 9099121 13.699 200 63 0187 988 9.17 0400619506836 13.57 6799 3927 00195 9.1 9200 038 9099121 L 13.57 6799 3927 00195 9.1 9200 038 9099121 C 13.807 200 43 182 373 9.17 0400619506836 14.07 1600 914 001 465 9.17 0400619506836 14.09 5199 58496 0938 9.17 0400619506836 L 14.09 5199 58496 0938 9.17 0400619506836 C 14.16 0000 801 086426 9.17 0400619506836 14.14 5599 365234375 9.1 5600 0137 32 9102 14.1815 996 1700 4395 9.2567 99697875977 L 14.1815 996 1700 4395 9.2567 99697875977 C 14.13 1200 3707 88574 9.32 15999603 27148 14.203 199 386 59668 9.343 199 72 99 19434 14.1815 996 1700 4395 9.47 2800 2548 21777 L 13.94 4000244140625 9.42 959976196289 C 13.83 600 0442504883 9.32 15999603 27148 13.79 2799949645996 9.27 1200180053711 13.7 063 99917602539 9.2567 99697875977 L 13.7 063 99917602539 9.2567 99697875977 C 13.7 063 99917602539 9.2567 99697875977 13.77 1200180053711 9.343 199 72 99 19434 13.7 063 99917602539 9.32 15999603 27148 L 13.7 063 99917602539 9.300000190734863 C 13.79 2799949645996 9.1 9200 038 9099121 13.83 600 0442504883 9.1 9200 038 9099121 13.79 2799949645996 9.1 48799896240234 L 13.79 2799949645996 9.1 48799896240234 C 13.77 1200180053711 9.1 9200 038 9099121 13.76 0400 77 209 4727 9.1 9200 038 9099121 13.77 1200180053711 9.17 0400619506836 L 13.77 1200180053711 9.17 0400619506836 C 13.77 1200180053711 9.17 0400619506836 13.77 1200180053711 9.32 15999603 27148 13.79 2799949645996 9.32 15999603 27148 L 13.79 2799949645996 9.32 15999603 27148 C 13.78 5600 66 2231445 9.32 15999603 27148 13.7 063 99917602539 9.32 15999603 27148 13.77 1200180053711"/></svg>