<svg xmlns="http://www.w3.org/2000/svg" viewBox="0 0 24 24" width="256" height="256"><path fill="none" stroke="black" stroke-width="0.8" stroke-opacity="1.0" d="M 6.684375286102295 4.575000286102295 L 11.114 06 2309265137 4.575000286102295 L 15.459375381469727 4.575000286102295 C 15.628125190734863 4.828125 476837158 15.796875 5.081250190734863 15.965624809265137 5.334375381469727 L 15.965624809265137 7.950000286102295 C 15.796875 8.090624809265137 15.628125190734863 8.231249809265137 15.459375381469727 8.371874809265137 L 11.114 06 2309265137 8.371874809265137 L 6.684375286102295 8.371874809265137 C 6.431250095367432 8.231249809265137 6.178125381469727 8.090624809265137 6.09375 7.950000286102295 L 6.09375 5.334375381469727 C 6.178125381469727 5.081250190734863 6.262500286102295 4.828125 476837158 6.346875190734863 4.575000286102295 L 6.346875190734863 4.575000286102295"/> <path fill="none" stroke="black" stroke-width="0.8" stroke-opacity="1.0" d="M 6.684375286102295 4.575000286102295 L 11.114 06 2309265137 4.575000286102295 L 15.459375381469727 4.575000286102295 C 15.628125190734863 4.828125 476837158 15.796875 4.912500381469727 15.965624809265137 5.334375381469727 L 15.965624809265137 7.950000286102295 C 15.796875 8.034375190734863 15.628125190734863 8.118749618530273 15.459375381469727 8.203125 L 11.114 06 2309265137 8.203125 L 6.684375286102295 8.203125 C 6.600000381469727 8.118749618530273 6.515625 476837158 8.034375190734863 6.431250095367432 7.950000286102295 L 6.431250095367432 5.334375381469727 C 6.515625 476837158 5.081250190734863 6.600000381469727 4.828125 476837158 6.684375286102295 4.575000286102295 L 6.684375286102295 4.575000286102295"/> <path fill="none" stroke="black" stroke-width="0.8" stroke-opacity="1.0" d="M 6.684375286102295 4.575000286102295 L 11.114 06 2309265137 4.575000286102295 L 15.459375381469727 4.575000286102295 C 15.628125190734863 4.828125 476837158 15.796875 5.081250190734863 15.965624809265137 5.334375381469727 L 15.965624809265137 6.009375095367432 C 15.796875 6.262500286102295 15.628125190734863 6.515625 476837158 15.459375381469727 6.600000381469727 L 11.114 06 2309265137 6.600000381469727 L 6.684375286102295 6.600000381469727 C 6.600000381469727 6.515625 476837158 6.515625 476837158 6.262500286102295 6.431250095367432 6.009375095367432 L 6.431250095367432 5.334375381469727 C 6.515625 476837158 5.081250190734863 6.600000381469727 4.828125 476837158 6.684375286102295 4.575000286102295 L 6.684375286102295 4.575000286102295"/> <path fill="none" stroke="black" stroke-width="0.8" stroke-opacity="1.0" d="M 6.684375286102295 4.575000286102295 L 11.114 06 2309265137 4.575000286102295 L 15.459375381469727 4.575000286102295 C 15.628125190734863 4.828125 476837158 15.796875 4.912500381469727 15.965624809265137 5.165625095367432 L 15.965624809265137 6.009375095367432 C 15.796875 6.009375095367432 15.628125190734863 6.009375095367432 15.459375381469727 6.009375095367432 L 11.114 06 2309265137 6.009375095367432 L 6.684375286102295 6.009375095367432 C 6.600000381469727 6.009375095367432 6.515625 476837158 6.009375095367432 6.431250095367432 6.009375095367432 L 6.431250095367432 6.009375095367432 C 6.515625 476837158 6.009375095367432 6.600000381469727 6.009375095367432 6.684375286102295 6.009375095367432 L 6.684375286102295 4.575000286102295"/> <path fill="none" stroke="black" stroke-width="0.8" stroke-opacity="1.0" d="M 6.684375286102295 4.575000286102295 L 11.114 06 2309265137 4.575000286102295 L 15.459375381469727 4.575000286102295 C 15.628125190734863 4.828125 476837158 15.796875 4.912500381469727 15.965624809265137 5.165625095367432 L 15.965624809265137 6.009375095367432 C 15.796875 6.009375095367432 15.628125190734863 6.009375095367432 15.459375381469727 6.009375095367432 L 11.114 06 2309265137 6.009375095367432 L 6.684375286102295 6.009375095367432 C 6.600000381469727 6.009375095367432 6.515625 476837158 6.009375095367432 6.431250095367432 6.009375095367432 L 6.431250095367432 6.009375095367432 C 6.515625 476837158 6.009375095367432 6.600000381469727 6.009375095367432 6.684375286102295 6.009375095367432 L 6.684375286102295 6.009375095367432 C"/></svg>