<svg xmlns="http://www.w3.org/2000/svg" viewBox="0 0 24 24" width="256" height="256"><path fill="none" stroke="black" stroke-width="0.8" stroke-opacity="1.0" d="M 12.84375 4.659375190734863 L 14.193750381469727 4.659375190734863 L 14.193750381469727 6.515625 L 12.84375 6.515625"/> <path fill="none" stroke="black" stroke-width="0.8" stroke-opacity="1.0" d="M 10.818750381469727 4.659375190734863 L 12.84375 4.659375190734863 L 12.84375 7.021874904632568 L 10.818750381469727 7.021874904632568"/> <path fill="none" stroke="black" stroke-width="0.8" stroke-opacity="1.0" d="M 13.434374809265137 4.659375190734863 L 14.193750381469727 4.659375190734863 L 14.193750381469727 7.021874904632568 L 13.434374809265137 7.021874904632568"/> <path fill="none" stroke="black" stroke-width="0.8" stroke-opacity="1.0" d="M 13.434374809265137 4.659375190734863 L 13.434374809265137 6.515625 L 12.84375 6.515625"/> <path fill="none" stroke="black" stroke-width="0.8" stroke-opacity="1.0" d="M 16.640625 4.659375190734863 L 18.412500381469727 4.659375190734863 L 18.412500381469727 7.021874904632568 L 16.640625 7.021874904632568"/> <path fill="none" stroke="black" stroke-width="0.8" stroke-opacity="1.0" d="M 9.553125381469727 4.996875286102295 L 10.818750381469727 4.996875286102295 L 10.818750381469727 7.021874904632568 L 9.553125381469727 7.021874904632568"/> <path fill="none" stroke="black" stroke-width="0.8" stroke-opacity="1.0" d="M 17.484375 4.996875286102295 L 19.846874237060547 4.996875286102295 L 19.846874237060547 7.021874904632568 L 17.484375 7.021874904632568"/> <path fill="none" stroke="black" stroke-width="0.8" stroke-opacity="1.0" d="M 7.78125 4.996875286102295 L 7.78125 7.021874904632568 L 7.359375 7.021874904632568"/> <path fill="none" stroke="black" stroke-width="0.8" stroke-opacity="1.0" d="M 8.371874809265137 4.996875286102295 L 9.553125381469727 4.996875286102295 L 9.553125381469727 7.021874904632568 L 8.371874809265137 7.021874904632568"/> <path fill="none" stroke="black" stroke-width="0.8" stroke-opacity="1.0" d="M 7.359375 7.865624904632568 L 8.371874809265137 7.865624904632568 L 8.371874809265137 7.865624904632568"/> <path fill="none" stroke="black" stroke-width="0.8" stroke-opacity="1.0" d="M 8.540624618530273 7.865624904632568 L 9.553125381469727 7.865624904632568 L 9.553125381469727 7.865624904632568 L 8.540624618530273 7.865624904632568"/> <path fill="none" stroke="black" stroke-width="0.8" stroke-opacity="1.0" d="M 7.443749904632568 7.865624904632568 L 8.371874809265137 7.865624904632568 L 8.371874809265137 7.865624904632568 L 7.443749904632568 7.865624904632568"/> <path fill="none" stroke="black" stroke-width="0.8" stroke-opacity="1.0" d="M 7.865624904632568 7.865624904632568 L 8.371874809265137 7.865624904632568 L 8.371874809265137 7.865624904632568 L 7.865624904632568 7.865624904632568"/> <path fill="none" stroke="black" stroke-width="0.8" stroke-opacity="1.0" d="M 11.831250190734863 7.865624904632568 L 12.084375381469727 7.865624904632568 L 12.084375381469727 8.709375381469727 L 11.831250190734863 8.709375381469727"/> <path fill="none" stroke="black" stroke-width="0.8" stroke-opacity="1.0"/></svg>