<svg xmlns="http://www.w3.org/2000/svg" viewBox="0 0 24 24" width="256" height="256"><path fill="none" stroke="black" stroke-width="0.8" stroke-opacity="1.0" d="M 18.581249237060547 4.321875095367432 L 18.581249237060547 4.321875095367432 C 18.806249618530273 4.575000286102295 19.03125 4.828125 476837158 19.256250381469727 5.081250190734863 L 19.256250381469727 5.081250190734863 C 19.171875 5.165625095367432 19.087499618530273 5.25 19.003124237060547 5.334375381469727 L 19.003124237060547 5.334375381469727 C 18.834375381469727 5.7 5624 9904632568 18.665624618530273 6.009375095367432 18.496875762939453 6.262500286102295 L 18.496875762939453 6.262500286102295 C 18.665624618530273 6.09375 18.834375381469727 5.925000190734863 19.003124237060547 5.756250381469727 L 19.003124237060547 5.165625095367432 C 18.834375381469727 4.828125 476837158 18.665624618530273 4.490625381469727 18.496875762939453 4.321875095367432 L 18.496875762939453 4.321875095367432"/> <path fill="none" stroke="black" stroke-width="0.8" stroke-opacity="1.0" d="M 18.581249237060547 4.490625381469727 L 18.581249237060547 4.490625381469727 C 18.834375381469727 4.743750095367432 18.918750762939453 4.996875286102295 19.003124237060547 5.081250190734863 L 19.003124237060547 5.418750286102295 C 18.834375381469727 5.671875 18.834375381469727 5.925000190734863 18.665624618530273 6.009375095367432 L 18.328125 6.009375095367432 C 18.243749618530273 6.009375095367432 18.15 937 614440918 6.009375095367432 17.90625 6.009375095367432 L 17.90625 6.009375095367432 C 17.765625 6.009375095367432 17.625 6.009375095367432 17.653125762939453 6.009375095367432 L 17.653125762939453 6.009375095367432 C 17.625 6.009375095367432 17.59687 614440918 6.009375095367432 17.568750381469727 6.009375095367432 L 17.568750381469727 6.009375095367432 C 17.568750381469727 6.009375095367432 17.568750381469727 6.009375095367432 17.568750381469727 6.009375095367432 L 17.568750381469727 6.009375095367432 C 17.59687 614440918 6.009375095367432 17.625 6.009375095367432 17.653125762939453 6.009375095367432 L 17.653125762939453 6.009375095367432 C 17.653125762939453 6.009375095367432 17.653125762939453 6.009375095367432 17.653125762939453 6.009375095367432 L 17.653125762939453 6.009375095367432 C 17.568750381469727 6.009375095367432 17.484375 6.009375095367432 17.399999618530273 6.009375095367432 L 17.399999618530273 6.009375095367432 C 17.540624618530273 6.009375095367432 17.681249618530273 6.009375095367432 17.821874618530273 6.009375095367432 L 17.821874618530273 6.009375095367432 C 17.850000381469727 6.009375095367432 17.8781 24237060547 6.009375095367432 17.90625 6.009375095367432 L 17.90625 6.009375095367432 C 18.15 937 614440918 6.009375095367432 18.412500381469727 6.009375095367432 18.496875762939453 6.009375095367432 L 18.496875762939453 6.009375095367432 C 18.553125381469727 6.009375095367432 18.4406 2614440918 6.009375095367432 18.328125 6.009375095367432 L 18.328125 6.009375095367432 C 18.384374618530273 6.009375095367432 18.271875381469727 6.009375095367432 18.328125 6.009375095367432 L 18.328125 6.009375095367432 C 18.328125 6.009375095367432 18.328125 6.009375095367432 18.328125 6.009375095367432 L 18.328125 6.009375095367432 C 18.328125 6.009375095367432 18.328125 6.009375095367432 18.328125 6.009375095367432 L 18.328125 6.009375095367432 C 18.328125 6.009375095367432 18.328125 6.009375095367432 18.328125 6.009375095367432 L 18.328125 6.009375095367432 C 18.412500381469727 6.009375095367432 18.328125 6.009375095367432 18.243749618530273 6.009375095367432 L 18.328125 6.009375095367432 C 18.328125 6.009375095367432 18.328125 6.009375095367432 18.328125 6.009375095367432 L 18.328125 6.009375095367432 C 18.328125 6.009375095367432 18.328125 6.009375095367432 18.328125 6.009375095367432 L 18.328125 6.009375095367432 C 18.328125 6.009375095367432 18.328125 6.009375095367432 18.328125 6.009375095367432 L 18.328125 6.009375095367432 C 18.328125 6.009375095367432 18.328125 6.009375095367432 18.328125 6.009375095367432 L 18.328125 6.009375095367432 C 18.328125 6.009375095367432 18.328125 6.009375095367432 18.328125 6.009375095367432 L 18.328125 6.009375095367432 C 18.328125 6.009375095367432 18.328125 6.009375095367432 18.328125 6.009375095367432 L 18.328125 6.009375095367432 C 18.328125"/></svg>